<mxfile host="app.diagrams.net" modified="2023-05-31T03:05:33.001Z" agent="Mozilla/5.0 (Windows NT 10.0; Win64; x64) AppleWebKit/537.36 (KHTML, like Gecko) Chrome/113.0.0.0 Safari/537.36" etag="ry0NA_5wNHPiNoyghOTo" version="21.3.3" type="device">
  <diagram name="Halaman-1" id="XOFkEF6E16ol7kwINsnu">
    <mxGraphModel dx="1720" dy="795" grid="1" gridSize="10" guides="1" tooltips="1" connect="1" arrows="1" fold="1" page="1" pageScale="1" pageWidth="827" pageHeight="1169" math="0" shadow="0">
      <root>
        <mxCell id="0" />
        <mxCell id="1" parent="0" />
        <mxCell id="eOn926E474PT9GGDVVFn-3" style="edgeStyle=orthogonalEdgeStyle;rounded=0;orthogonalLoop=1;jettySize=auto;html=1;exitX=0.5;exitY=1;exitDx=0;exitDy=0;" edge="1" parent="1" source="eOn926E474PT9GGDVVFn-1" target="eOn926E474PT9GGDVVFn-2">
          <mxGeometry relative="1" as="geometry" />
        </mxCell>
        <mxCell id="eOn926E474PT9GGDVVFn-1" value="Splash Screen" style="rounded=0;whiteSpace=wrap;html=1;" vertex="1" parent="1">
          <mxGeometry x="440" y="60" width="110" height="50" as="geometry" />
        </mxCell>
        <mxCell id="eOn926E474PT9GGDVVFn-38" style="edgeStyle=orthogonalEdgeStyle;rounded=0;orthogonalLoop=1;jettySize=auto;html=1;exitX=0.5;exitY=1;exitDx=0;exitDy=0;entryX=0.5;entryY=0;entryDx=0;entryDy=0;" edge="1" parent="1" source="eOn926E474PT9GGDVVFn-2" target="eOn926E474PT9GGDVVFn-4">
          <mxGeometry relative="1" as="geometry" />
        </mxCell>
        <mxCell id="eOn926E474PT9GGDVVFn-39" style="edgeStyle=orthogonalEdgeStyle;rounded=0;orthogonalLoop=1;jettySize=auto;html=1;exitX=0.5;exitY=1;exitDx=0;exitDy=0;entryX=0.5;entryY=0;entryDx=0;entryDy=0;" edge="1" parent="1" source="eOn926E474PT9GGDVVFn-2" target="eOn926E474PT9GGDVVFn-25">
          <mxGeometry relative="1" as="geometry" />
        </mxCell>
        <mxCell id="eOn926E474PT9GGDVVFn-40" style="edgeStyle=orthogonalEdgeStyle;rounded=0;orthogonalLoop=1;jettySize=auto;html=1;exitX=0.5;exitY=1;exitDx=0;exitDy=0;" edge="1" parent="1" source="eOn926E474PT9GGDVVFn-2" target="eOn926E474PT9GGDVVFn-30">
          <mxGeometry relative="1" as="geometry" />
        </mxCell>
        <mxCell id="eOn926E474PT9GGDVVFn-2" value="Login/Register" style="rounded=0;whiteSpace=wrap;html=1;" vertex="1" parent="1">
          <mxGeometry x="440" y="140" width="110" height="50" as="geometry" />
        </mxCell>
        <mxCell id="eOn926E474PT9GGDVVFn-9" style="edgeStyle=orthogonalEdgeStyle;rounded=0;orthogonalLoop=1;jettySize=auto;html=1;exitX=0.5;exitY=1;exitDx=0;exitDy=0;entryX=0;entryY=0.5;entryDx=0;entryDy=0;" edge="1" parent="1" source="eOn926E474PT9GGDVVFn-4" target="eOn926E474PT9GGDVVFn-5">
          <mxGeometry relative="1" as="geometry" />
        </mxCell>
        <mxCell id="eOn926E474PT9GGDVVFn-11" style="edgeStyle=orthogonalEdgeStyle;rounded=0;orthogonalLoop=1;jettySize=auto;html=1;exitX=0.5;exitY=1;exitDx=0;exitDy=0;entryX=0;entryY=0.5;entryDx=0;entryDy=0;" edge="1" parent="1" source="eOn926E474PT9GGDVVFn-4" target="eOn926E474PT9GGDVVFn-8">
          <mxGeometry relative="1" as="geometry" />
        </mxCell>
        <mxCell id="eOn926E474PT9GGDVVFn-4" value="Home (Pembelajaran)" style="rounded=0;whiteSpace=wrap;html=1;" vertex="1" parent="1">
          <mxGeometry x="120" y="280" width="110" height="50" as="geometry" />
        </mxCell>
        <mxCell id="eOn926E474PT9GGDVVFn-18" style="edgeStyle=orthogonalEdgeStyle;rounded=0;orthogonalLoop=1;jettySize=auto;html=1;exitX=0.5;exitY=1;exitDx=0;exitDy=0;entryX=0.5;entryY=0;entryDx=0;entryDy=0;" edge="1" parent="1" source="eOn926E474PT9GGDVVFn-5" target="eOn926E474PT9GGDVVFn-12">
          <mxGeometry relative="1" as="geometry" />
        </mxCell>
        <mxCell id="eOn926E474PT9GGDVVFn-5" value="Abjad" style="rounded=0;whiteSpace=wrap;html=1;" vertex="1" parent="1">
          <mxGeometry x="220" y="360" width="110" height="50" as="geometry" />
        </mxCell>
        <mxCell id="eOn926E474PT9GGDVVFn-23" style="edgeStyle=orthogonalEdgeStyle;rounded=0;orthogonalLoop=1;jettySize=auto;html=1;exitX=0.5;exitY=1;exitDx=0;exitDy=0;" edge="1" parent="1" source="eOn926E474PT9GGDVVFn-8" target="eOn926E474PT9GGDVVFn-16">
          <mxGeometry relative="1" as="geometry" />
        </mxCell>
        <mxCell id="eOn926E474PT9GGDVVFn-8" value="Kata" style="rounded=0;whiteSpace=wrap;html=1;" vertex="1" parent="1">
          <mxGeometry x="220" y="520" width="110" height="50" as="geometry" />
        </mxCell>
        <mxCell id="eOn926E474PT9GGDVVFn-19" style="edgeStyle=orthogonalEdgeStyle;rounded=0;orthogonalLoop=1;jettySize=auto;html=1;exitX=1;exitY=0.5;exitDx=0;exitDy=0;" edge="1" parent="1" source="eOn926E474PT9GGDVVFn-12" target="eOn926E474PT9GGDVVFn-13">
          <mxGeometry relative="1" as="geometry" />
        </mxCell>
        <mxCell id="eOn926E474PT9GGDVVFn-12" value="Pilihan Abjad" style="rounded=0;whiteSpace=wrap;html=1;" vertex="1" parent="1">
          <mxGeometry x="220" y="440" width="110" height="50" as="geometry" />
        </mxCell>
        <mxCell id="eOn926E474PT9GGDVVFn-13" value="Ilustrasi Isyarat Abjad" style="rounded=0;whiteSpace=wrap;html=1;" vertex="1" parent="1">
          <mxGeometry x="360" y="440" width="110" height="50" as="geometry" />
        </mxCell>
        <mxCell id="eOn926E474PT9GGDVVFn-24" style="edgeStyle=orthogonalEdgeStyle;rounded=0;orthogonalLoop=1;jettySize=auto;html=1;exitX=1;exitY=0.5;exitDx=0;exitDy=0;entryX=0;entryY=0.5;entryDx=0;entryDy=0;" edge="1" parent="1" source="eOn926E474PT9GGDVVFn-16" target="eOn926E474PT9GGDVVFn-17">
          <mxGeometry relative="1" as="geometry" />
        </mxCell>
        <mxCell id="eOn926E474PT9GGDVVFn-16" value="Pilihan Kata" style="rounded=0;whiteSpace=wrap;html=1;" vertex="1" parent="1">
          <mxGeometry x="220" y="600" width="110" height="50" as="geometry" />
        </mxCell>
        <mxCell id="eOn926E474PT9GGDVVFn-17" value="Ilustrasi Isyarat Kata" style="rounded=0;whiteSpace=wrap;html=1;" vertex="1" parent="1">
          <mxGeometry x="360" y="600" width="110" height="50" as="geometry" />
        </mxCell>
        <mxCell id="eOn926E474PT9GGDVVFn-27" style="edgeStyle=orthogonalEdgeStyle;rounded=0;orthogonalLoop=1;jettySize=auto;html=1;exitX=0.5;exitY=1;exitDx=0;exitDy=0;entryX=0;entryY=0.5;entryDx=0;entryDy=0;" edge="1" parent="1" source="eOn926E474PT9GGDVVFn-25" target="eOn926E474PT9GGDVVFn-26">
          <mxGeometry relative="1" as="geometry" />
        </mxCell>
        <mxCell id="eOn926E474PT9GGDVVFn-25" value="Terjemahan&amp;nbsp;" style="rounded=0;whiteSpace=wrap;html=1;" vertex="1" parent="1">
          <mxGeometry x="440" y="280" width="110" height="50" as="geometry" />
        </mxCell>
        <mxCell id="eOn926E474PT9GGDVVFn-29" style="edgeStyle=orthogonalEdgeStyle;rounded=0;orthogonalLoop=1;jettySize=auto;html=1;exitX=0.5;exitY=1;exitDx=0;exitDy=0;" edge="1" parent="1" source="eOn926E474PT9GGDVVFn-26" target="eOn926E474PT9GGDVVFn-28">
          <mxGeometry relative="1" as="geometry" />
        </mxCell>
        <mxCell id="eOn926E474PT9GGDVVFn-26" value="Kamera" style="rounded=0;whiteSpace=wrap;html=1;" vertex="1" parent="1">
          <mxGeometry x="530" y="350" width="110" height="50" as="geometry" />
        </mxCell>
        <mxCell id="eOn926E474PT9GGDVVFn-28" value="Hasil Terjemahan" style="rounded=0;whiteSpace=wrap;html=1;" vertex="1" parent="1">
          <mxGeometry x="530" y="430" width="110" height="50" as="geometry" />
        </mxCell>
        <mxCell id="eOn926E474PT9GGDVVFn-32" style="edgeStyle=orthogonalEdgeStyle;rounded=0;orthogonalLoop=1;jettySize=auto;html=1;exitX=0.5;exitY=1;exitDx=0;exitDy=0;entryX=0;entryY=0.5;entryDx=0;entryDy=0;" edge="1" parent="1" source="eOn926E474PT9GGDVVFn-30" target="eOn926E474PT9GGDVVFn-31">
          <mxGeometry relative="1" as="geometry" />
        </mxCell>
        <mxCell id="eOn926E474PT9GGDVVFn-35" style="edgeStyle=orthogonalEdgeStyle;rounded=0;orthogonalLoop=1;jettySize=auto;html=1;exitX=0.5;exitY=1;exitDx=0;exitDy=0;entryX=0;entryY=0.5;entryDx=0;entryDy=0;" edge="1" parent="1" source="eOn926E474PT9GGDVVFn-30" target="eOn926E474PT9GGDVVFn-33">
          <mxGeometry relative="1" as="geometry" />
        </mxCell>
        <mxCell id="eOn926E474PT9GGDVVFn-36" style="edgeStyle=orthogonalEdgeStyle;rounded=0;orthogonalLoop=1;jettySize=auto;html=1;exitX=0.5;exitY=1;exitDx=0;exitDy=0;entryX=0;entryY=0.5;entryDx=0;entryDy=0;" edge="1" parent="1" source="eOn926E474PT9GGDVVFn-30" target="eOn926E474PT9GGDVVFn-34">
          <mxGeometry relative="1" as="geometry" />
        </mxCell>
        <mxCell id="eOn926E474PT9GGDVVFn-30" value="Profil" style="rounded=0;whiteSpace=wrap;html=1;" vertex="1" parent="1">
          <mxGeometry x="700" y="280" width="110" height="50" as="geometry" />
        </mxCell>
        <mxCell id="eOn926E474PT9GGDVVFn-31" value="Nama" style="rounded=0;whiteSpace=wrap;html=1;" vertex="1" parent="1">
          <mxGeometry x="800" y="350" width="110" height="50" as="geometry" />
        </mxCell>
        <mxCell id="eOn926E474PT9GGDVVFn-33" value="Email" style="rounded=0;whiteSpace=wrap;html=1;" vertex="1" parent="1">
          <mxGeometry x="800" y="430" width="110" height="50" as="geometry" />
        </mxCell>
        <mxCell id="eOn926E474PT9GGDVVFn-34" value="Logout" style="rounded=0;whiteSpace=wrap;html=1;" vertex="1" parent="1">
          <mxGeometry x="800" y="510" width="110" height="50" as="geometry" />
        </mxCell>
      </root>
    </mxGraphModel>
  </diagram>
</mxfile>
